<svg width="580" height="400" xmlns="http://www.w3.org/2000/svg">
 <!-- Created with Method Draw - http://github.com/duopixel/Method-Draw/ -->
 <g>
  <title>background</title>
  <rect fill="#fff" id="canvas_background" height="402" width="582" y="-1" x="-1"/>
 </g>
 <g>
  <title>Layer 1</title>
  <rect stroke="#0000ff" id="svg_53" height="413.000003" width="612.000034" y="-7.500003" x="-18.500034" stroke-width="1.5" fill="#007fff"/>
  <rect id="svg_4" height="0" width="487" y="310.5" x="99.5" fill-opacity="null" stroke-opacity="null" stroke-width="1.5" stroke="#000" fill="#00ff00"/>
  <rect stroke="#00ffff" id="svg_14" height="29.999999" width="33.000001" y="57.5" x="88.5" stroke-width="1.5" fill="#00ffff"/>
  <rect stroke="#00ffff" id="svg_15" height="29.999999" width="33.000001" y="75.5" x="107.5" stroke-width="1.5" fill="#00ffff"/>
  <rect stroke="#00ffff" id="svg_16" height="29.999999" width="33.000001" y="86.5" x="131.5" stroke-width="1.5" fill="#00ffff"/>
  <rect stroke="#00ffff" id="svg_17" height="29.999999" width="33.000001" y="102.5" x="159.5" stroke-width="1.5" fill="#00ffff"/>
  <rect stroke="#00ffff" id="svg_18" height="29.999999" width="33.000001" y="112.5" x="192.5" stroke-width="1.5" fill="#00ffff"/>
  <rect stroke="#00ffff" id="svg_19" height="29.999999" width="33.000001" y="120.5" x="223.5" stroke-width="1.5" fill="#00ffff"/>
  <rect stroke="#00ffff" id="svg_20" height="29.999999" width="33.000001" y="129.5" x="256.5" stroke-width="1.5" fill="#00ffff"/>
  <rect stroke="#00ffff" id="svg_21" height="29.999999" width="33.000001" y="117.5" x="285.5" stroke-width="1.5" fill="#00ffff"/>
  <rect stroke="#00ffff" id="svg_22" height="29.999999" width="33.000001" y="129.5" x="308.5" stroke-width="1.5" fill="#00ffff"/>
  <rect stroke="#00ffff" id="svg_23" height="29.999999" width="33.000001" y="161.5" x="333.5" stroke-width="1.5" fill="#00ffff"/>
  <rect stroke="#00ffff" id="svg_24" height="29.999999" width="33.000001" y="64.5" x="433.5" stroke-width="1.5" fill="#00ffff"/>
  <rect stroke="#00ffff" id="svg_25" height="29.999999" width="33.000001" y="89.5" x="411.5" stroke-width="1.5" fill="#00ffff"/>
  <rect stroke="#00ffff" id="svg_26" height="29.999999" width="33.000001" y="107.5" x="388.5" stroke-width="1.5" fill="#00ffff"/>
  <rect stroke="#00ffff" id="svg_27" height="29.999999" width="33.000001" y="120.5" x="360.5" stroke-width="1.5" fill="#00ffff"/>
  <rect stroke="#00ffff" id="svg_28" height="29.999999" width="33.000001" y="143.5" x="351.5" stroke-width="1.5" fill="#00ffff"/>
  <rect stroke="#00ffff" id="svg_29" height="29.999999" width="33.000001" y="188.5" x="346.5" stroke-width="1.5" fill="#00ffff"/>
  <rect stroke="#00ffff" id="svg_30" height="29.999999" width="33.000001" y="209.5" x="365.5" stroke-width="1.5" fill="#00ffff"/>
  <rect stroke="#00ffff" id="svg_31" height="29.999999" width="33.000001" y="231.5" x="396.5" stroke-width="1.5" fill="#00ffff"/>
  <rect stroke="#00ffff" id="svg_32" height="29.999999" width="33.000001" y="260.5" x="369.5" stroke-width="1.5" fill="#00ffff"/>
  <rect stroke="#00ffff" id="svg_33" height="29.999999" width="33.000001" y="284.5" x="396.5" stroke-width="1.5" fill="#00ffff"/>
  <rect stroke="#00ffff" id="svg_34" height="29.999999" width="33.000001" y="304.5" x="429.5" stroke-width="1.5" fill="#00ffff"/>
  <rect stroke="#00ffff" id="svg_35" height="29.999999" width="33.000001" y="142.5" x="177.5" stroke-width="1.5" fill="#00ffff"/>
  <rect stroke="#00ffff" id="svg_36" height="29.999999" width="33.000001" y="169.5" x="150.5" stroke-width="1.5" fill="#00ffff"/>
  <rect stroke="#00ffff" id="svg_37" height="29.999999" width="33.000001" y="198.5" x="121.5" stroke-width="1.5" fill="#00ffff"/>
  <rect stroke="#00ffff" id="svg_38" height="29.999999" width="33.000001" y="225.5" x="155.5" stroke-width="1.5" fill="#00ffff"/>
  <rect stroke="#00ffff" id="svg_39" height="29.999999" width="33.000001" y="214.5" x="99.5" stroke-width="1.5" fill="#00ffff"/>
  <rect stroke="#00ffff" id="svg_40" height="29.999999" width="33.000001" y="57.5" x="88.5" stroke-width="1.5" fill="#00ffff"/>
  <rect stroke="#00ffff" id="svg_41" height="29.999999" width="33.000001" y="248.5" x="183.5" stroke-width="1.5" fill="#00ffff"/>
  <rect stroke="#00ffff" id="svg_42" height="29.999999" width="33.000001" y="264.5" x="205.5" stroke-width="1.5" fill="#00ffff"/>
  <rect stroke="#00ffff" id="svg_43" height="29.999999" width="33.000001" y="295.5" x="238.5" stroke-width="1.5" fill="#00ffff"/>
  <rect stroke="#00ffff" id="svg_44" height="29.999999" width="33.000001" y="276.5" x="265.5" stroke-width="1.5" fill="#00ffff"/>
  <rect stroke="#00ffff" id="svg_45" height="29.999999" width="33.000001" y="253.5" x="295.5" stroke-width="1.5" fill="#00ffff"/>
  <rect stroke="#00ffff" id="svg_46" height="29.999999" width="33.000001" y="273.5" x="326.5" stroke-width="1.5" fill="#00ffff"/>
  <rect stroke="#00ffff" id="svg_47" height="29.999999" width="33.000001" y="247.5" x="343.5" stroke-width="1.5" fill="#00ffff"/>
  <rect stroke="#00ffff" id="svg_48" height="29.999999" width="33.000001" y="319.5" x="211.5" stroke-width="1.5" fill="#00ffff"/>
  <rect stroke="#00ffff" id="svg_49" height="29.999999" width="33.000001" y="337.5" x="181.5" stroke-width="1.5" fill="#00ffff"/>
  <rect stroke="#00ffff" id="svg_50" height="29.999999" width="33.000001" y="323.5" x="270.5" stroke-width="1.5" fill="#00ffff"/>
  <rect stroke="#00ffff" id="svg_51" height="29.999999" width="33.000001" y="355.5" x="298.5" stroke-width="1.5" fill="#00ffff"/>
  <rect stroke="#00ffff" id="svg_52" height="29.999999" width="33.000001" y="335.5" x="297.5" stroke-width="1.5" fill="#00ffff"/>
  <rect id="svg_54" height="29" width="28" y="206.5" x="347.5" stroke-width="1.5" stroke="#aaffff" fill="#aaffff"/>
 </g>
</svg>